<mxfile host="Electron" agent="Mozilla/5.0 (Windows NT 10.0; Win64; x64) AppleWebKit/537.36 (KHTML, like Gecko) draw.io/25.0.2 Chrome/128.0.6613.186 Electron/32.2.5 Safari/537.36" version="25.0.2">
  <diagram name="Página-1" id="xHvnjqaXn3sl-4beOaGc">
    <mxGraphModel dx="1877" dy="629" grid="1" gridSize="10" guides="1" tooltips="1" connect="1" arrows="1" fold="1" page="1" pageScale="1" pageWidth="827" pageHeight="1169" math="0" shadow="0">
      <root>
        <mxCell id="0" />
        <mxCell id="1" parent="0" />
        <mxCell id="pm264JdS2RHZBkOWRQmG-4" value="" style="edgeStyle=orthogonalEdgeStyle;rounded=0;orthogonalLoop=1;jettySize=auto;html=1;" edge="1" parent="1" source="pm264JdS2RHZBkOWRQmG-1">
          <mxGeometry relative="1" as="geometry">
            <mxPoint x="380" y="160" as="targetPoint" />
          </mxGeometry>
        </mxCell>
        <mxCell id="pm264JdS2RHZBkOWRQmG-1" value="INÍCIO" style="rounded=1;whiteSpace=wrap;html=1;" vertex="1" parent="1">
          <mxGeometry x="320" y="50" width="120" height="60" as="geometry" />
        </mxCell>
        <mxCell id="pm264JdS2RHZBkOWRQmG-5" value="" style="edgeStyle=orthogonalEdgeStyle;rounded=0;orthogonalLoop=1;jettySize=auto;html=1;" edge="1" parent="1">
          <mxGeometry relative="1" as="geometry">
            <mxPoint x="380" y="220" as="sourcePoint" />
            <mxPoint x="380" y="280" as="targetPoint" />
          </mxGeometry>
        </mxCell>
        <mxCell id="pm264JdS2RHZBkOWRQmG-7" value="" style="edgeStyle=orthogonalEdgeStyle;rounded=0;orthogonalLoop=1;jettySize=auto;html=1;" edge="1" parent="1">
          <mxGeometry relative="1" as="geometry">
            <mxPoint x="330" y="330" as="sourcePoint" />
            <mxPoint x="200" y="410" as="targetPoint" />
          </mxGeometry>
        </mxCell>
        <mxCell id="pm264JdS2RHZBkOWRQmG-17" value="" style="edgeStyle=orthogonalEdgeStyle;rounded=0;orthogonalLoop=1;jettySize=auto;html=1;" edge="1" parent="1" source="pm264JdS2RHZBkOWRQmG-8" target="pm264JdS2RHZBkOWRQmG-16">
          <mxGeometry relative="1" as="geometry" />
        </mxCell>
        <mxCell id="pm264JdS2RHZBkOWRQmG-8" value="num != 0&lt;span style=&quot;background-color: initial;&quot;&gt;&amp;nbsp;&lt;/span&gt;&lt;div&gt;&lt;div&gt;&lt;br&gt;&lt;/div&gt;&lt;/div&gt;" style="strokeWidth=2;html=1;shape=mxgraph.flowchart.decision;whiteSpace=wrap;" vertex="1" parent="1">
          <mxGeometry x="315" y="290" width="130" height="140" as="geometry" />
        </mxCell>
        <mxCell id="pm264JdS2RHZBkOWRQmG-10" value="num" style="html=1;strokeWidth=2;shape=manualInput;whiteSpace=wrap;rounded=1;size=26;arcSize=11;" vertex="1" parent="1">
          <mxGeometry x="330" y="160" width="100" height="60" as="geometry" />
        </mxCell>
        <mxCell id="pm264JdS2RHZBkOWRQmG-13" value="" style="edgeStyle=orthogonalEdgeStyle;rounded=0;orthogonalLoop=1;jettySize=auto;html=1;" edge="1" parent="1" source="pm264JdS2RHZBkOWRQmG-11" target="pm264JdS2RHZBkOWRQmG-12">
          <mxGeometry relative="1" as="geometry" />
        </mxCell>
        <mxCell id="pm264JdS2RHZBkOWRQmG-15" value="" style="edgeStyle=orthogonalEdgeStyle;rounded=0;orthogonalLoop=1;jettySize=auto;html=1;" edge="1" parent="1" source="pm264JdS2RHZBkOWRQmG-11" target="pm264JdS2RHZBkOWRQmG-14">
          <mxGeometry relative="1" as="geometry" />
        </mxCell>
        <mxCell id="pm264JdS2RHZBkOWRQmG-11" value="num &amp;gt; 0&amp;nbsp;" style="strokeWidth=2;html=1;shape=mxgraph.flowchart.decision;whiteSpace=wrap;" vertex="1" parent="1">
          <mxGeometry x="120" y="420" width="170" height="170" as="geometry" />
        </mxCell>
        <mxCell id="pm264JdS2RHZBkOWRQmG-24" style="edgeStyle=orthogonalEdgeStyle;rounded=0;orthogonalLoop=1;jettySize=auto;html=1;" edge="1" parent="1" source="pm264JdS2RHZBkOWRQmG-12" target="pm264JdS2RHZBkOWRQmG-23">
          <mxGeometry relative="1" as="geometry">
            <Array as="points">
              <mxPoint x="-45" y="760" />
            </Array>
          </mxGeometry>
        </mxCell>
        <mxCell id="pm264JdS2RHZBkOWRQmG-12" value="&quot;POSITIVO&quot;" style="shape=document;whiteSpace=wrap;html=1;boundedLbl=1;strokeWidth=2;" vertex="1" parent="1">
          <mxGeometry x="-105" y="465" width="120" height="80" as="geometry" />
        </mxCell>
        <mxCell id="pm264JdS2RHZBkOWRQmG-25" style="edgeStyle=orthogonalEdgeStyle;rounded=0;orthogonalLoop=1;jettySize=auto;html=1;entryX=1;entryY=0.5;entryDx=0;entryDy=0;" edge="1" parent="1" source="pm264JdS2RHZBkOWRQmG-14" target="pm264JdS2RHZBkOWRQmG-23">
          <mxGeometry relative="1" as="geometry">
            <Array as="points">
              <mxPoint x="460" y="760" />
            </Array>
          </mxGeometry>
        </mxCell>
        <mxCell id="pm264JdS2RHZBkOWRQmG-14" value="&quot;NEGATIVO&quot;" style="shape=document;whiteSpace=wrap;html=1;boundedLbl=1;strokeWidth=2;" vertex="1" parent="1">
          <mxGeometry x="395" y="465" width="120" height="75" as="geometry" />
        </mxCell>
        <mxCell id="pm264JdS2RHZBkOWRQmG-18" style="edgeStyle=orthogonalEdgeStyle;rounded=0;orthogonalLoop=1;jettySize=auto;html=1;entryX=1;entryY=0.75;entryDx=0;entryDy=0;" edge="1" parent="1" source="pm264JdS2RHZBkOWRQmG-16" target="pm264JdS2RHZBkOWRQmG-10">
          <mxGeometry relative="1" as="geometry">
            <mxPoint x="440" y="200" as="targetPoint" />
            <Array as="points">
              <mxPoint x="590" y="205" />
            </Array>
          </mxGeometry>
        </mxCell>
        <mxCell id="pm264JdS2RHZBkOWRQmG-16" value="&quot;O número precisa ser diferente de 0, volte ao início e digite&quot;" style="shape=document;whiteSpace=wrap;html=1;boundedLbl=1;strokeWidth=2;" vertex="1" parent="1">
          <mxGeometry x="530" y="320" width="120" height="80" as="geometry" />
        </mxCell>
        <mxCell id="pm264JdS2RHZBkOWRQmG-20" value="NÃO" style="text;html=1;align=center;verticalAlign=middle;whiteSpace=wrap;rounded=0;" vertex="1" parent="1">
          <mxGeometry x="460" y="300" width="60" height="30" as="geometry" />
        </mxCell>
        <mxCell id="pm264JdS2RHZBkOWRQmG-19" value="SIM" style="text;html=1;align=center;verticalAlign=middle;whiteSpace=wrap;rounded=0;" vertex="1" parent="1">
          <mxGeometry x="240" y="290" width="60" height="30" as="geometry" />
        </mxCell>
        <mxCell id="pm264JdS2RHZBkOWRQmG-21" value="SIM" style="text;html=1;align=center;verticalAlign=middle;whiteSpace=wrap;rounded=0;" vertex="1" parent="1">
          <mxGeometry x="40" y="465" width="60" height="30" as="geometry" />
        </mxCell>
        <mxCell id="pm264JdS2RHZBkOWRQmG-22" value="NÃO" style="text;html=1;align=center;verticalAlign=middle;whiteSpace=wrap;rounded=0;" vertex="1" parent="1">
          <mxGeometry x="300" y="470" width="60" height="30" as="geometry" />
        </mxCell>
        <mxCell id="pm264JdS2RHZBkOWRQmG-23" value="FIM" style="rounded=1;whiteSpace=wrap;html=1;" vertex="1" parent="1">
          <mxGeometry x="140" y="730" width="120" height="60" as="geometry" />
        </mxCell>
      </root>
    </mxGraphModel>
  </diagram>
</mxfile>
